<?xml version="1.0" encoding="UTF-8" standalone="no"?>
<!-- Created with Inkscape (http://www.inkscape.org/) -->

<svg
   version="1.1"
   id="svg2"
   width="2447.5066"
   height="2164.2134"
   viewBox="0 0 2447.5066 2164.2134"
   sodipodi:docname="tiranoo.ai"
   xmlns:inkscape="http://www.inkscape.org/namespaces/inkscape"
   xmlns:sodipodi="http://sodipodi.sourceforge.net/DTD/sodipodi-0.dtd"
   xmlns="http://www.w3.org/2000/svg"
   xmlns:svg="http://www.w3.org/2000/svg">
  <defs
     id="defs6">
    <clipPath
       clipPathUnits="userSpaceOnUse"
       id="clipPath16">
      <path
         d="M 0,1623.161 H 1835.633 V 0 H 0 Z"
         id="path14" />
    </clipPath>
    <clipPath
       clipPathUnits="userSpaceOnUse"
       id="clipPath412">
      <path
         d="M 0,1623.161 H 1835.633 V 0 H 0 Z"
         id="path410" />
    </clipPath>
  </defs>
  <sodipodi:namedview
     id="namedview4"
     pagecolor="#ffffff"
     bordercolor="#ffffff"
     borderopacity="0.25"
     inkscape:showpageshadow="2"
     inkscape:pageopacity="0.0"
     inkscape:pagecheckerboard="0"
     inkscape:deskcolor="#d1d1d1" />
  <g
     id="g8"
     inkscape:groupmode="layer"
     inkscape:label="tiranoo"
     transform="matrix(1.3333333,0,0,-1.3333333,0,2164.2133)">
    <g
       id="g10">
      <g
         id="g12"
         clip-path="url(#clipPath16)">
        <g
           id="g18"
           transform="translate(1373.9844,876.9062)">
          <path
             d="m 0,0 c 12.24,1.447 14.479,3.98 14.49,16.268 0.016,18.83 0.188,37.666 -0.123,56.492 -0.084,5.066 -1.2,10.254 -2.684,15.129 -2.103,6.908 -7.101,10.959 -14.361,12.285 -15.228,2.785 -28.765,-5.488 -31.244,-20.678 -1.674,-10.258 -1.47,-20.865 -1.605,-31.322 -0.178,-13.824 -0.071,-27.658 0.322,-41.477 0.179,-6.265 4.415,-9.47 10.684,-9.099 1.288,0.076 2.565,0.31 3.808,0.468 2.891,-8.57 -1.525,-15.867 -10.709,-17.716 -2.463,-0.496 -4.301,-0.786 -4.244,-4.149 0.302,-18.156 0.125,-36.324 0.611,-54.474 0.315,-11.782 6.791,-19.995 16.184,-21.95 12.31,-2.562 24.33,2.092 28.88,12.422 2.547,5.783 4.058,12.426 4.288,18.746 0.588,16.143 0.203,32.323 0.185,48.489 -0.002,1.568 -0.162,3.136 -0.245,4.64 C 1.139,-15.506 -3.225,-10.533 0,0 m -19.687,-155.092 c -9.856,1.406 -19.099,1.756 -27.783,4.143 -29.055,7.986 -45.03,28.308 -50.722,57.103 -1.792,9.067 -2.253,18.461 -2.613,27.733 -0.431,11.148 -0.246,22.33 -0.039,33.492 0.082,4.412 -0.189,6.965 -5.965,6.812 -6.504,-0.171 -10.941,6.719 -9.224,13.211 0.308,1.17 2.387,2.5 3.772,2.657 7.363,0.828 10.939,3.943 11.079,11.429 0.309,16.494 0.126,32.996 0.307,49.494 0.181,16.579 2.135,32.891 8.921,48.237 13.212,29.877 36.792,46.484 68.288,52.562 14.479,2.793 29.161,3.311 43.686,0.621 29.578,-5.476 47.9,-23.582 55.504,-52.234 2.57,-9.684 3.554,-19.951 3.965,-30.004 0.64,-15.641 0.169,-31.326 0.169,-46.992 C 79.659,9.926 81.709,7.822 94.626,7.805 97.732,-1.52 93.199,-7.402 79.9,-10.787 c -0.08,-1.44 -0.244,-3.039 -0.246,-4.637 -0.014,-14.166 0.43,-28.347 -0.085,-42.496 -1.07,-29.443 -10.125,-55.508 -33.596,-75.017 -0.355,-0.295 -0.544,-0.788 -1.413,-2.092 10.295,3.359 19.715,6.5 29.176,9.509 31.452,10.012 62.68,20.686 91.69,36.663 12.039,6.632 23.629,14.257 34.705,22.406 9.485,6.978 10.825,13.779 6.188,24.623 -2.129,4.978 -5.098,9.803 -8.563,13.969 -10.406,12.515 -23.569,21.863 -36.11,30.58 -4.393,-2.768 -8.014,-5.717 -12.144,-7.469 -4.455,-1.889 -9.025,-0.801 -12.152,3.201 -2.041,2.611 -2.899,5.254 0.73,7.998 5.456,4.129 5.396,8.863 0.58,14.024 -13.187,14.127 -23.745,29.793 -26.541,49.379 -3.89,27.236 4.09,51.193 22.191,71.529 20.25,22.75 46.381,31.832 76.436,31.303 26.856,-0.473 47.121,-12.12 61.406,-34.694 1.92,-3.035 2.106,-5.381 0.133,-8.588 -10.214,-16.595 -20.246,-33.304 -30.129,-50.099 -1.75,-2.973 -3.459,-3.477 -6.433,-2.256 -3.383,1.389 -8.02,1.527 -10.006,3.943 -1.571,1.91 0.104,6.436 0.219,9.805 0.089,2.662 0.168,5.344 -0.044,7.994 -0.858,10.678 -8.945,19.35 -19.171,20.705 -12.176,1.617 -23.928,-4.391 -27.438,-14.412 -0.893,-2.551 -1.502,-5.984 -0.488,-8.215 1.21,-2.664 4.304,-4.471 7.281,-6.273 1.712,-5.785 -2.89,-8.293 -7.596,-10.889 3.856,-8.568 10.473,-14.453 17.613,-19.582 11.082,-7.963 22.643,-15.254 33.843,-23.057 18.644,-12.992 34.757,-28.412 42.218,-50.523 12.512,-37.08 6.711,-71.951 -24.708,-99.264 -23.231,-20.197 -50.278,-32.941 -79.609,-41.238 -64.34,-18.201 -128.623,-36.611 -193.095,-54.332 -73.802,-20.285 -147.739,-40.084 -221.699,-59.787 -74.246,-19.779 -148.502,-39.531 -222.917,-58.66 -84.429,-21.701 -168.936,-43.114 -253.605,-63.852 -55.628,-13.625 -111.511,-26.26 -167.464,-38.492 -28.056,-6.135 -56.521,-10.397 -84.811,-15.443 -3.099,-0.553 -6.265,-0.762 -9.408,-1.022 -8.323,-0.689 -15.467,0.875 -22.657,6.33 -29.171,22.135 -58.933,43.488 -88.473,65.137 -0.767,0.56 -1.489,1.182 -3.595,2.861 183.68,20.852 364.733,49.412 544.696,84.789 180.318,35.448 358.92,77.955 535.504,131.336"
             style="fill:#000000;fill-opacity:1;fill-rule:evenodd;stroke:none"
             id="path20" />
        </g>
        <g
           id="g22"
           transform="translate(399.6924,803.3242)">
          <path
             d="m 0,0 c 0,-1.873 -0.002,-3.35 0.001,-4.826 0.088,-53.324 -0.028,-106.651 0.51,-159.971 0.072,-7.199 2.638,-14.699 5.474,-21.463 3.489,-8.316 9.13,-10.529 21.477,-10.648 -3.723,-10.428 -9.467,-18.92 -20.031,-22.938 -10.35,-3.935 -20.612,-1.543 -30.69,2.049 -2.418,-32.644 -42.506,-59.396 -63.028,-48.699 2.753,6.713 6.49,13.182 8.011,20.135 2.468,11.297 4.819,22.902 4.896,34.394 0.449,66.988 0.223,133.979 0.225,200.969 v 3.371 c -3.307,0.586 -6.278,0.824 -9.068,1.666 -6.802,2.049 -10.321,8.363 -8.772,15.275 0.141,0.633 0.312,1.645 0.706,1.778 6.657,2.238 7.318,12.056 15.612,12.39 0.561,0.022 1.434,2.678 1.451,4.118 0.126,10.33 0.069,20.662 0.069,30.994 0,33.496 0.064,66.99 -0.072,100.486 -0.02,4.949 -0.785,9.926 -1.568,14.834 -0.932,5.838 -3.804,10.596 -9.697,13.961 6.013,7.498 9.301,16.707 20.216,19.398 9.794,2.414 19.168,6.534 29.652,10.227 -16.338,6.611 -31.951,12.096 -48.523,14.518 -13.766,2.011 -27.264,1.107 -40.304,-3.788 -15.827,-5.939 -27.823,-16.056 -31.673,-33.183 -3.107,-13.826 1.463,-26.692 16.246,-31.606 3.703,-1.232 3.748,-3.466 2.067,-5.519 -3.53,-4.309 -6.989,-9.262 -11.631,-11.971 -32.318,-18.863 -77.144,-5.951 -81.001,43.053 -2.815,35.773 18.655,66.205 50.977,80.697 24.989,11.205 51.387,12.738 78.256,10.701 30.463,-2.308 59.793,-10.619 89.527,-16.771 17.207,-3.561 34.573,-5.779 52.036,-4.19 20.066,1.829 37.763,8.713 46.777,28.823 1.867,4.166 2.617,8.836 4.18,14.32 23.056,-21.002 45.933,-41.84 69.61,-63.408 -4.708,-4.487 -8.877,-9.002 -13.588,-12.854 C 128.357,209.998 105.05,201.363 79.896,196.943 55.108,192.588 30.89,194.674 7.14,202.738 3.235,204.064 1.159,203.504 1.002,198.918 0.819,193.615 0.015,188.322 0.007,183.023 -0.059,134.699 -0.015,86.373 0.019,38.049 0.021,35.385 0.008,32.695 0.354,30.064 c 0.874,-6.621 5.907,-10.41 12.272,-9.451 4.447,0.67 6.077,-1 5.496,-5.631 C 17.259,8.104 12.011,2.354 5.139,0.824 3.692,0.502 2.208,0.348 0,0"
             style="fill:#000000;fill-opacity:1;fill-rule:evenodd;stroke:none"
             id="path24" />
        </g>
        <g
           id="g26"
           transform="translate(1033.7598,830.168)">
          <path
             d="m 0,0 c -2.338,0 -3.985,-0.109 -5.613,0.02 -5.768,0.453 -9.895,4.773 -9.842,10.537 0.026,2.933 -0.176,5.638 4.767,5.341 6.663,-0.398 10.684,5.059 10.692,12.918 0.021,21.164 0,42.33 -0.004,63.497 -0.002,11.498 0.11,23 -0.066,34.496 -0.061,3.964 -0.588,7.966 -1.349,11.865 -1.146,5.869 -3.583,11.086 -9.791,14.373 3.722,5.01 7.126,9.887 10.913,14.449 0.785,0.945 3.037,1.135 4.529,0.961 16.375,-1.908 32.709,-1.225 48.454,3.357 8.147,2.372 13.841,2.157 18.174,-5.625 1.101,-1.978 2.845,-3.599 4.322,-5.418 -11.489,-10.751 -11.387,-23.449 -7.344,-36.958 4.792,-16.006 15.156,-28.377 26.322,-40.141 11.798,-12.43 23.92,-24.555 35.912,-36.799 0.303,-0.31 0.748,-0.482 1.768,-1.119 v 5.256 c 0,29.164 0.051,58.33 -0.061,87.494 -0.014,3.957 -0.575,7.963 -1.351,11.853 -1.169,5.868 -3.768,10.995 -9.801,14.264 3.765,5.065 7.202,9.912 10.935,14.52 0.719,0.886 2.646,1.283 3.935,1.148 19.103,-2.019 37.874,-0.613 56.37,4.748 1.568,0.455 4.201,-0.391 5.429,-1.576 3.449,-3.328 6.423,-7.15 9.842,-11.076 -10.551,-8.451 -11.078,-20.315 -11.117,-32.213 -0.103,-30.664 -0.039,-61.33 -0.033,-91.994 0.003,-10.621 2.038,-12.629 12.603,-13.252 1.174,-0.071 3.032,-1.826 3.221,-3.014 0.875,-5.486 -3.667,-11.826 -9.462,-13.717 -1.881,-0.615 -3.831,-1.025 -6.133,-1.629 -0.076,-1.613 -0.219,-3.234 -0.22,-4.855 -0.012,-28.5 -0.061,-56.998 0.056,-85.496 0.017,-4.295 0.524,-8.645 1.335,-12.867 1.149,-5.987 3.126,-11.668 9.973,-14.674 -3.926,-5.311 -7.466,-10.276 -11.249,-15.047 -0.636,-0.803 -2.379,-1.199 -3.518,-1.057 -19.107,2.387 -37.832,0.643 -56.342,-4.55 -1.731,-0.487 -4.584,0.41 -5.934,1.697 -3.453,3.291 -6.349,7.162 -9.668,11.033 9.882,8.187 10.467,19.393 11.204,30.592 1.648,25.013 -7.808,46.084 -24.125,64.053 -13.397,14.753 -28.029,28.386 -43.087,43.492 -0.272,-2.782 -0.494,-3.985 -0.494,-5.19 -0.014,-36.498 -0.048,-72.996 0.051,-109.494 0.012,-4.129 0.485,-8.314 1.276,-12.371 1.175,-6.021 3.554,-11.49 10.058,-14.773 -3.874,-5.213 -7.326,-10.209 -11.222,-14.83 -0.868,-1.032 -3.364,-1.215 -5.002,-0.991 -18.096,2.485 -35.835,0.522 -53.213,-4.574 -4.299,-1.26 -6.7,-0.504 -9.134,2.979 -2.27,3.246 -5.102,6.101 -7.929,9.414 11,9.377 10.966,22.091 10.965,34.8 C -0.002,-59.479 0,-32.813 0,-6.148 Z"
             style="fill:#000000;fill-opacity:1;fill-rule:evenodd;stroke:none"
             id="path28" />
        </g>
        <g
           id="g30"
           transform="translate(629.0244,819.6699)">
          <path
             d="M 0,0 C 8.83,1.141 17.132,1.75 25.233,3.363 38.138,5.932 46.251,14.207 47.044,27.234 48.022,43.332 48.008,59.533 47.495,75.66 47.126,87.25 39.103,94.344 27.485,94.061 19.892,93.877 12.345,92.215 4.748,91.572 0.661,91.227 -0.424,89.451 -0.4,85.516 -0.248,58.859 -0.325,32.201 -0.311,5.545 -0.31,4.082 -0.151,2.617 0,0 m -75.775,122.043 c 3.763,5.17 7.195,10.076 10.879,14.785 0.755,0.965 2.537,1.805 3.714,1.658 19.594,-2.433 38.811,-0.215 57.886,4.274 17.261,4.06 34.76,6.291 52.49,5.148 33.806,-2.178 59.208,-19.201 63.016,-56.672 2.733,-26.892 4.083,-54.23 -2.587,-80.978 -4.076,-16.346 -13.047,-29.781 -26.449,-40.117 -1.949,-1.504 -3.499,-2.739 -2.365,-5.705 9.802,-25.661 19.305,-51.438 29.291,-77.026 3.429,-8.789 8.568,-16.623 18.61,-20.619 -3.848,-5.213 -7.348,-10.178 -11.148,-14.9 -0.71,-0.883 -2.673,-1.223 -3.982,-1.084 -19.392,2.054 -38.521,1.056 -57.226,-4.803 -2.568,-0.803 -4.253,-0.625 -5.997,1.644 -2.831,3.686 -6.03,7.086 -9.266,10.832 8.418,10.071 3.744,20.545 0.343,30.625 -6.226,18.45 -13.167,36.655 -19.675,55.01 -1.132,3.194 -2.295,5.035 -6.299,4.424 -4.892,-0.746 -9.921,-0.596 -15.432,-0.857 -0.13,-2.082 -0.333,-3.844 -0.335,-5.608 -0.023,-19.832 -0.099,-39.666 0.053,-59.498 0.031,-4.125 0.704,-8.289 1.495,-12.355 1.111,-5.711 3.514,-10.758 9.685,-13.766 -3.941,-5.26 -7.507,-10.199 -11.326,-14.937 -0.618,-0.764 -2.405,-0.993 -3.573,-0.846 -18.77,2.379 -37.206,0.682 -55.319,-4.572 -3.099,-0.899 -5.323,-0.715 -7.403,1.968 -2.735,3.53 -5.774,6.825 -8.989,10.578 10.356,8.247 11.145,19.686 11.173,31.305 0.067,27.666 0.027,55.334 0.03,83 10e-4,1.799 10e-4,3.6 10e-4,5.781 -2.135,0.139 -3.762,0.178 -5.374,0.362 -5.843,0.668 -9.982,4.869 -10.226,10.467 -0.15,3.468 0.395,5.904 5.078,5.943 6.074,0.051 10.391,5.26 10.467,11.752 0.116,9.832 0.043,19.666 0.044,29.498 0.002,23 0.056,46 -0.054,69 -0.019,3.965 -0.458,7.982 -1.213,11.877 -1.178,6.074 -3.936,11.307 -10.017,14.412"
             style="fill:#000000;fill-opacity:1;fill-rule:evenodd;stroke:none"
             id="path32" />
        </g>
        <g
           id="g34"
           transform="translate(886.6055,920.3262)">
          <path
             d="m 0,0 c -0.505,-0.02 -1.011,-0.039 -1.517,-0.059 -6.325,-34.568 -12.65,-69.136 -19.101,-104.398 13.711,1.209 26.066,2.299 39.117,3.451 C 12.255,-66.914 6.128,-33.457 0,0 m -124.15,-234.375 c 12.589,8.445 15.445,20.012 18.06,31.279 6.57,28.311 12.467,56.778 18.75,85.157 0.63,2.845 0.024,4.054 -2.756,5.177 -5.791,2.34 -9.088,8.666 -8.254,14.565 0.368,2.586 1.364,3.728 4.318,3.263 6.987,-1.101 11.618,2.077 13.346,9.461 3.37,14.391 6.518,28.838 9.583,43.297 4.653,21.944 9.19,43.912 13.709,65.883 2.035,9.885 0.703,15.148 -5.449,21.504 4.448,5.018 8.847,10.158 13.499,15.057 0.835,0.88 2.712,1.031 4.12,1.066 14.975,0.379 30.02,-0.107 44.911,1.201 14.334,1.258 28.496,4.436 42.77,6.524 1.934,0.283 4.547,-0.268 6.033,-1.454 4.506,-3.589 8.612,-7.679 12.971,-11.664 -9.542,-8.755 -6.965,-19.289 -4.904,-28.98 7.084,-33.318 14.861,-66.492 22.441,-99.705 1.264,-5.535 5.371,-7.858 10.949,-6.502 1.288,0.312 2.539,0.781 3.782,1.17 3.787,-5.477 1.74,-14.178 -4.958,-18.518 -3.188,-2.066 -3.436,-3.826 -2.642,-7.248 6.527,-28.156 12.634,-56.41 19.253,-84.545 2.143,-9.111 5.341,-18.009 15.1,-23.195 -4.269,-5.48 -8.255,-10.723 -12.435,-15.805 -0.552,-0.67 -2.129,-0.82 -3.178,-0.709 -20.27,2.145 -40.213,0.719 -59.836,-5.015 -1.321,-0.387 -3.597,0.334 -4.586,1.355 -3.456,3.576 -6.542,7.51 -9.982,11.561 7.683,8.381 5.896,18.299 4.463,27.937 -1.924,12.949 -4.44,25.811 -6.742,38.947 -12.161,-1.048 -24.036,-2.068 -35.91,-3.101 -5.789,-0.504 -11.569,-1.219 -17.369,-1.475 -3.326,-0.146 -4.944,-0.949 -5.522,-4.687 -2.031,-13.135 -4.587,-26.188 -6.851,-39.289 -1.847,-10.696 -0.498,-17.592 4.78,-24.098 -3.462,-4.644 -6.941,-9.475 -10.642,-14.127 -0.671,-0.844 -2.318,-1.476 -3.405,-1.34 -20.13,2.518 -39.832,0.379 -59.341,-4.84 -1.717,-0.459 -4.307,0.594 -5.895,1.756 -4.018,2.944 -7.697,6.352 -12.181,10.137"
             style="fill:#000000;fill-opacity:1;fill-rule:evenodd;stroke:none"
             id="path36" />
        </g>
        <g
           id="g38"
           transform="translate(440.334,931.7363)">
          <path
             d="m 0,0 c 3.73,5.209 6.865,10.336 10.832,14.709 1.346,1.482 4.869,1.707 7.259,1.404 13.374,-1.691 26.583,-0.67 39.745,1.762 2.778,0.514 5.713,0.82 8.23,1.977 6.637,3.044 11.166,1.099 14.708,-4.95 1.487,-2.535 3.654,-4.673 5.75,-7.291 -9.851,-7.115 -10.925,-17.605 -10.99,-28.17 -0.197,-32.164 -0.082,-64.33 -0.07,-96.494 0.004,-9.422 3.256,-12.351 12.646,-12.033 1.075,0.035 3.008,-1.793 3.193,-2.969 0.981,-6.267 -3.922,-12.644 -10.636,-14.275 -1.44,-0.348 -2.941,-0.449 -4.961,-0.744 -0.081,-1.692 -0.237,-3.453 -0.238,-5.215 -0.018,-29.166 -0.1,-58.332 0.071,-87.496 0.027,-4.598 0.536,-9.438 2.07,-13.717 1.603,-4.471 4.713,-8.398 7.783,-13.611 -2.538,-3.463 -5.812,-8.428 -9.676,-12.877 -1.067,-1.227 -3.972,-1.487 -5.905,-1.229 -17.965,2.401 -35.534,0.272 -52.806,-4.621 -4.047,-1.146 -6.473,-0.433 -8.83,2.965 -2.337,3.373 -5.28,6.324 -8.173,9.711 8.97,6.506 10.978,16.006 11.119,25.437 0.465,31.483 0.176,62.977 0.176,92.969 -5.115,2.485 -10.229,3.817 -13.566,7.006 -2.127,2.035 -1.622,6.822 -2.35,10.658 3.086,0.291 4.736,0.391 6.372,0.61 6.374,0.845 9.53,4.236 9.538,10.603 0.042,33.998 0.275,67.998 -0.148,101.992 C 11.029,-14.857 9.971,-5.346 0,0"
             style="fill:#000000;fill-opacity:1;fill-rule:evenodd;stroke:none"
             id="path40" />
        </g>
        <g
           id="g42"
           transform="translate(432.8789,1076.5332)">
          <path
             d="m 0,0 c 0.979,2.043 1.594,3.52 2.361,4.91 22.241,40.25 49.035,77.199 79.988,111.207 49.065,53.912 106.125,97.363 170.922,130.567 54.585,27.97 112.177,46.957 172.701,57.464 44.159,7.666 88.552,10.307 133.176,8.348 46.976,-2.064 93.169,-9.758 138.413,-22.76 48.884,-14.047 95.361,-33.761 139.207,-59.572 50.687,-29.838 96.211,-66.109 136.32,-109.209 41.833,-44.951 75.9,-95.092 102.382,-150.486 2.524,-5.28 2.203,-8.43 -2.505,-11.502 -1.646,-1.074 -3.009,-2.582 -5.081,-4.399 -1.01,1.799 -1.936,3.256 -2.677,4.801 -22.208,46.289 -49.348,89.453 -82.18,128.949 -61.512,73.996 -135.813,131.028 -224.638,168.674 -43.418,18.403 -88.506,30.774 -135.16,37.637 -39.034,5.74 -78.205,6.484 -117.538,4.541 C 446.635,296.252 389.31,284.719 333.607,265.096 272.128,243.436 215.876,212.197 164.769,171.746 106.817,125.879 59.027,71.084 21.562,7.402 18.121,1.553 13.495,0.736 8.121,0.051 5.709,-0.256 3.227,0 0,0"
             style="fill:#000000;fill-opacity:1;fill-rule:evenodd;stroke:none"
             id="path44" />
        </g>
        <g
           id="g46"
           transform="translate(1525.6641,624.9434)">
          <path
             d="m 0,0 c -59.556,-164.461 -216.258,-326.83 -439.501,-372.262 -235.882,-48.002 -448.777,46.506 -572.168,186.231 6.131,4.867 14.023,4.693 18.992,-0.647 36.506,-39.217 77.303,-73.244 122.874,-101.459 59.522,-36.851 123.578,-61.949 192.521,-74.674 43.888,-8.101 87.998,-10.666 132.55,-8.591 60.222,2.804 118.785,13.908 175.688,33.654 61.248,21.252 117.459,51.943 168.453,91.943 77.432,60.739 136.351,136.123 177.097,225.701 2.755,6.057 5.107,12.307 8.063,18.26 0.722,1.451 3.064,2.862 4.714,2.928 C -7.279,1.219 -3.805,0.443 0,0"
             style="fill:#000000;fill-opacity:1;fill-rule:evenodd;stroke:none"
             id="path48" />
        </g>
        <g
           id="g50"
           transform="translate(1400.7891,1042.4707)">
          <path
             d="m 0,0 c -5.738,0.838 -10.418,1.107 -14.818,2.359 -1.883,0.536 -3.43,2.946 -4.715,4.793 -21.187,30.448 -45.145,58.518 -72.203,83.893 -42.276,39.642 -89.685,71.635 -142.856,94.855 -40.301,17.6 -82.205,29.524 -125.853,35.416 -27.462,3.709 -55.014,5.395 -82.661,4.479 -75.415,-2.494 -147.58,-18.76 -215.743,-51.725 -59.031,-28.547 -110.559,-67.152 -154.9,-115.349 -9.342,-10.155 -17.82,-21.1 -26.699,-31.68 -0.948,-1.127 -1.91,-2.242 -2.996,-3.514 -1.188,0.778 -2.188,1.332 -3.075,2.032 -7.664,6.035 -7.65,6.037 -1.608,13.632 55.672,69.975 124.738,122.297 207.094,157.082 40.199,16.979 81.985,28.153 125.089,34.899 34.205,5.351 68.615,6.885 103.028,5.219 75.254,-3.643 146.702,-22.366 213.915,-56.766 C -144.484,151.723 -96.447,115.256 -54.627,70.6 -35.021,49.664 -17.445,27.084 -1.695,3.1 -1.267,2.445 -0.939,1.725 0,0"
             style="fill:#000000;fill-opacity:1;fill-rule:evenodd;stroke:none"
             id="path52" />
        </g>
        <g
           id="g54"
           transform="translate(1448.8984,681.7578)">
          <path
             d="m 0,0 c -56.293,-151.123 -198.127,-287.547 -389.976,-322.609 -99.954,-18.268 -197.347,-8.633 -291.824,28.814 -48.674,19.295 -93.278,45.633 -134.201,79.004 8.021,3.979 13.771,3.324 20.787,-2.174 56.773,-44.488 120.218,-75.363 190.698,-91.426 43.054,-9.812 86.582,-13.298 130.722,-11.48 75.024,3.09 146.329,20.498 213.661,53.769 55.377,27.364 104.069,63.852 146.224,108.94 40.953,43.805 73.296,93.353 97.155,148.381 1.567,3.615 3.605,5.677 7.44,6.345 2.877,0.5 5.673,1.463 9.314,2.436"
             style="fill:#000000;fill-opacity:1;fill-rule:evenodd;stroke:none"
             id="path56" />
        </g>
        <g
           id="g58"
           transform="translate(841.4189,1026.7422)">
          <path
             d="M 0,0 C 1.49,1.566 2.394,2.516 3.297,3.465 1.747,4.691 0.342,6.332 -1.422,6.949 -2.16,7.209 -3.658,5.299 -4.812,4.375 -3.362,3.057 -1.913,1.74 0,0 m 230.306,101.809 c -3.09,1.752 -4.715,3.187 -6.526,3.486 -0.929,0.152 -2.194,-1.727 -3.307,-2.688 1.449,-1.173 2.749,-2.82 4.403,-3.345 0.996,-0.315 2.546,1.115 5.43,2.547 m -92.455,22.566 c -36.344,11.262 -72.115,22.346 -107.885,33.432 0.782,-1.293 1.83,-1.762 2.918,-2.108 29.107,-9.211 58.197,-18.482 87.349,-27.551 5.887,-1.832 10.909,-4.435 13.856,-10.685 1.38,2.535 2.474,4.547 3.762,6.912 M 182.694,82.217 C 124.442,52.057 63.609,29.42 -0.84,16.947 64.665,26.559 125.618,49.045 182.694,82.217 M -6.837,-8.543 c 3.306,0.16 6.687,-0.07 9.909,0.541 37.506,7.109 73.767,18.422 109.093,32.793 33.401,13.588 65.348,29.832 93.988,52.025 3.559,2.758 6.972,5.704 10.452,8.563 C 148.822,37.83 72.878,10.344 -6.837,-8.543 M 203.902,99.934 c -16.949,5.728 -33.506,11.691 -50.318,16.828 -6.778,2.072 -13.454,0.156 -18.935,-4.967 -0.935,-0.875 -3.002,-1.176 -4.351,-0.875 -19.713,4.408 -39.632,8.135 -59.019,13.707 -21.382,6.146 -42.286,13.967 -63.358,21.174 -6.185,2.115 -6.161,2.531 -5.618,12.506 0.26,4.787 3.359,7.373 7.351,7.254 8.018,-0.239 16.349,-0.334 23.944,-2.559 39.053,-11.443 77.862,-23.721 116.864,-35.346 21.142,-6.301 42.49,-11.916 63.777,-17.728 1.787,-0.489 4.012,-0.662 5.688,-0.045 6.479,2.39 12.98,0.767 17.314,-4.69 0.69,-0.869 1.488,-2.084 2.412,-2.271 12.098,-2.449 23.842,-7.526 36.616,-5.135 0.488,0.092 1.068,0.283 1.476,0.115 1.408,-0.582 2.759,-1.302 4.131,-1.968 -1.218,-1.127 -2.375,-3.131 -3.665,-3.221 -4.95,-0.344 -10.017,-0.594 -14.901,0.094 -6.899,0.972 -13.712,2.656 -20.489,4.33 -4.75,1.176 -8.199,0.414 -11.837,-3.44 C 208.247,69.611 180.384,52.686 151.021,38.145 104.866,15.289 56.373,-0.881 5.92,-11.148 c -8.52,-1.735 -16.938,-1.684 -23.941,4.711 -5.72,5.222 -6.177,11.072 -1.414,17.238 5.432,7.029 12.5,11.33 21.316,12.73 47.062,7.473 92.214,21.432 135.35,41.477 21.707,10.088 42.59,21.945 63.835,33.023 0.981,0.512 1.851,1.235 2.836,1.903"
             style="fill:#000000;fill-opacity:1;fill-rule:evenodd;stroke:none"
             id="path60" />
        </g>
        <g
           id="g62"
           transform="translate(559.1475,558.9238)">
          <path
             d="m 0,0 c -0.375,-0.225 -0.624,-0.434 -0.912,-0.541 -9.223,-3.418 -14.611,0.307 -19.973,8.246 -14.455,21.414 -28.397,43.07 -39.995,66.182 -0.649,1.297 -1.201,2.642 -2.242,4.947 4.689,-0.461 8.6,-0.695 12.446,-1.32 1.052,-0.17 2.261,-1.325 2.812,-2.342 C -33.895,49.357 -18.15,24.691 -0.375,1.328 -0.111,0.982 -0.115,0.434 0,0"
             style="fill:#000000;fill-opacity:1;fill-rule:evenodd;stroke:none"
             id="path64" />
        </g>
        <g
           id="g66"
           transform="translate(431.4297,585.1602)">
          <path
             d="m 0,0 c 7.854,-14.428 15.289,-28.084 22.914,-42.092 -1.005,-0.31 -1.596,-0.457 -2.16,-0.672 -10.56,-4.006 -15.948,1.116 -19.737,10.451 -2.681,6.606 -6.644,12.682 -9.673,19.165 -0.596,1.273 -0.061,3.712 0.859,4.925 C -5.708,-5.471 -3.055,-3.146 0,0"
             style="fill:#000000;fill-opacity:1;fill-rule:evenodd;stroke:none"
             id="path68" />
        </g>
        <g
           id="g70"
           transform="translate(376.2168,1088.1465)">
          <path
             d="M 0,0 C 0.172,7.943 5.898,13.449 13.728,13.195 20.977,12.959 26.839,6.707 26.656,-0.594 26.479,-7.715 20.191,-13.598 12.875,-13.486 5.277,-13.371 -0.164,-7.67 0,0"
             style="fill:#000000;fill-opacity:1;fill-rule:evenodd;stroke:none"
             id="path72" />
        </g>
        <g
           id="g74"
           transform="translate(1531.1533,552.0156)">
          <path
             d="m 0,0 c 7.423,-0.023 13.378,-5.885 13.446,-13.238 0.069,-7.358 -6.336,-13.573 -13.849,-13.44 -7.419,0.131 -13.02,5.987 -12.987,13.58 C -13.358,-5.527 -7.684,0.021 0,0"
             style="fill:#000000;fill-opacity:1;fill-rule:evenodd;stroke:none"
             id="path76" />
        </g>
        <g
           id="g78"
           transform="translate(1470.0898,1170.4238)">
          <path
             d="M 0,0 C 0.039,7.582 5.744,13.115 13.409,13.006 20.703,12.9 26.854,6.719 26.772,-0.428 26.693,-7.35 20.096,-13.969 13.246,-13.994 5.998,-14.023 -0.04,-7.645 0,0"
             style="fill:#000000;fill-opacity:1;fill-rule:evenodd;stroke:none"
             id="path80" />
        </g>
        <g
           id="g82"
           transform="translate(1496.8477,456.7617)">
          <path
             d="m 0,0 c 0.002,-7.822 -5.33,-13.256 -13.043,-13.295 -7.557,-0.039 -13.82,6.166 -13.666,13.537 0.147,7.104 6.59,13.354 13.646,13.238 C -5.688,13.361 0,7.492 0,0"
             style="fill:#000000;fill-opacity:1;fill-rule:evenodd;stroke:none"
             id="path84" />
        </g>
        <g
           id="g86"
           transform="translate(728.7295,1389.5996)">
          <path
             d="m 0,0 c -7.57,-0.021 -14.031,6.242 -13.819,13.398 0.203,6.834 6.921,13.426 13.677,13.418 C 7.024,26.807 13.128,20.59 13.15,13.275 13.174,5.617 7.63,0.021 0,0"
             style="fill:#000000;fill-opacity:1;fill-rule:evenodd;stroke:none"
             id="path88" />
        </g>
        <g
           id="g90"
           transform="translate(1565.2939,613.7656)">
          <path
             d="m 0,0 c -7.228,0.035 -13.288,6.15 -13.265,13.387 0.024,6.959 6.608,13.367 13.621,13.256 C 7.831,26.525 13.527,20.758 13.563,13.27 13.603,5.326 8.118,-0.039 0,0"
             style="fill:#000000;fill-opacity:1;fill-rule:evenodd;stroke:none"
             id="path92" />
        </g>
        <g
           id="g94"
           transform="translate(742.6895,223.1289)">
          <path
             d="m 0,0 c 0.02,-7.434 -5.833,-13.371 -13.181,-13.373 -7.254,-0.002 -13.548,6.023 -13.697,13.113 -0.151,7.281 6.244,13.668 13.697,13.676 C -5.867,13.424 -0.021,7.471 0,0"
             style="fill:#000000;fill-opacity:1;fill-rule:evenodd;stroke:none"
             id="path96" />
        </g>
        <g
           id="g98"
           transform="translate(643.3564,1348.3477)">
          <path
             d="m 0,0 c -7.487,-0.02 -13.114,5.643 -13.153,13.234 -0.04,7.668 5.466,13.311 13.024,13.348 C 7.499,26.619 13.638,20.564 13.522,13.117 13.409,5.801 7.449,0.02 0,0"
             style="fill:#000000;fill-opacity:1;fill-rule:evenodd;stroke:none"
             id="path100" />
        </g>
        <g
           id="g102"
           transform="translate(866.4385,173.4551)">
          <path
             d="m 0,0 c -7.51,-0.008 -13.22,5.627 -13.318,13.148 -0.096,7.139 6.002,13.409 13.183,13.561 C 7.086,26.859 13.44,20.412 13.361,13.016 13.279,5.422 7.724,0.008 0,0"
             style="fill:#000000;fill-opacity:1;fill-rule:evenodd;stroke:none"
             id="path104" />
        </g>
        <g
           id="g106"
           transform="translate(1377.9092,349.2305)">
          <path
             d="M 0,0 C 0.04,7.684 6.067,13.564 13.733,13.398 20.967,13.242 26.935,6.988 26.796,-0.293 26.657,-7.648 20.659,-13.398 13.188,-13.338 5.669,-13.275 -0.039,-7.504 0,0"
             style="fill:#000000;fill-opacity:1;fill-rule:evenodd;stroke:none"
             id="path108" />
        </g>
        <g
           id="g110"
           transform="translate(878.8232,1439.4414)">
          <path
             d="m 0,0 c -0.01,-7.545 -5.676,-13.205 -13.23,-13.219 -7.808,-0.015 -13.388,5.651 -13.344,13.549 0.039,7.139 6.404,13.445 13.418,13.293 C -6.05,13.469 0.008,7.195 0,0"
             style="fill:#000000;fill-opacity:1;fill-rule:evenodd;stroke:none"
             id="path112" />
        </g>
        <g
           id="g114"
           transform="translate(643.9971,277.3652)">
          <path
             d="m 0,0 c 7.551,0.004 13.774,-6.133 13.679,-13.49 -0.09,-6.961 -6.658,-13.297 -13.684,-13.199 -7.499,0.105 -13.13,5.867 -13.179,13.484 C -13.232,-5.584 -7.662,-0.002 0,0"
             style="fill:#000000;fill-opacity:1;fill-rule:evenodd;stroke:none"
             id="path116" />
        </g>
        <g
           id="g118"
           transform="translate(1550.0771,595.3594)">
          <path
             d="m 0,0 c 7.155,0.016 13.521,-6.137 13.608,-13.152 0.088,-7.043 -6.685,-13.662 -13.907,-13.588 -7.196,0.072 -13.05,6.222 -13.026,13.685 C -13.3,-5.385 -7.82,-0.018 0,0"
             style="fill:#000000;fill-opacity:1;fill-rule:evenodd;stroke:none"
             id="path120" />
        </g>
        <g
           id="g122"
           transform="translate(1543.8721,1087.9453)">
          <path
             d="m 0,0 c -0.05,-7.17 -6.413,-13.475 -13.403,-13.275 -7.184,0.203 -13.276,6.492 -13.235,13.66 0.042,7.398 5.919,13.176 13.409,13.181 C -5.281,13.574 0.056,8.102 0,0"
             style="fill:#000000;fill-opacity:1;fill-rule:evenodd;stroke:none"
             id="path124" />
        </g>
        <g
           id="g126"
           transform="translate(1053.9746,1426.3203)">
          <path
             d="m 0,0 c -7.572,0.072 -12.926,5.656 -12.9,13.451 0.025,7.236 6.177,13.383 13.334,13.317 C 7.378,26.705 13.808,20.252 13.857,13.297 13.908,6.039 7.54,-0.072 0,0"
             style="fill:#000000;fill-opacity:1;fill-rule:evenodd;stroke:none"
             id="path128" />
        </g>
        <g
           id="g130"
           transform="translate(760.0078,1418.4902)">
          <path
             d="M 0,0 C -0.045,7.387 5.393,13.018 12.696,13.145 20.625,13.283 26.67,7.662 26.674,0.148 26.678,-7.455 20.584,-13.592 13.094,-13.529 5.855,-13.469 0.045,-7.465 0,0"
             style="fill:#000000;fill-opacity:1;fill-rule:evenodd;stroke:none"
             id="path132" />
        </g>
        <g
           id="g134"
           transform="translate(552.0742,1308.1855)">
          <path
             d="M 0,0 C 0.024,7.859 5.315,13.289 12.964,13.303 20.741,13.318 26.835,7.385 26.669,-0.037 26.507,-7.242 20.339,-13.375 13.196,-13.432 6.106,-13.49 -0.022,-7.25 0,0"
             style="fill:#000000;fill-opacity:1;fill-rule:evenodd;stroke:none"
             id="path136" />
        </g>
        <g
           id="g138"
           transform="translate(1042.0645,186.8457)">
          <path
             d="M 0,0 C 0.018,7.701 5.578,13.393 13.064,13.373 20.5,13.352 26.918,7.004 26.771,-0.187 26.628,-7.256 20.363,-13.283 13.117,-13.324 5.637,-13.365 -0.018,-7.623 0,0"
             style="fill:#000000;fill-opacity:1;fill-rule:evenodd;stroke:none"
             id="path140" />
        </g>
        <g
           id="g142"
           transform="translate(565.7549,304.2773)">
          <path
             d="m 0,0 c -7.34,0.039 -13.493,6.059 -13.471,13.176 0.023,7.109 6.284,13.426 13.362,13.478 C 7.522,26.711 13.412,20.732 13.318,13.029 13.225,5.363 7.697,-0.043 0,0"
             style="fill:#000000;fill-opacity:1;fill-rule:evenodd;stroke:none"
             id="path144" />
        </g>
        <g
           id="g146"
           transform="translate(819.916,182.207)">
          <path
             d="M 0,0 C -7.817,0.031 -13.292,5.404 -13.322,13.072 -13.353,20.844 -7.618,26.375 0.367,26.277 7.792,26.187 13.848,20.084 13.609,12.934 13.359,5.479 7.562,-0.031 0,0"
             style="fill:#000000;fill-opacity:1;fill-rule:evenodd;stroke:none"
             id="path148" />
        </g>
        <g
           id="g150"
           transform="translate(1277.0518,251.6621)">
          <path
             d="m 0,0 c -7.848,0.049 -12.899,5.281 -12.856,13.316 0.04,7.623 5.709,13.401 13.107,13.356 C 7.579,26.627 13.946,20.107 13.76,12.836 13.575,5.639 7.48,-0.047 0,0"
             style="fill:#000000;fill-opacity:1;fill-rule:evenodd;stroke:none"
             id="path152" />
        </g>
        <g
           id="g154"
           transform="translate(516.2295,1277.2109)">
          <path
             d="M 0,0 C -0.1,7.812 5.129,13.256 12.889,13.418 20.459,13.578 26.765,7.486 26.693,0.082 26.625,-6.955 20.213,-13.373 13.249,-13.371 6.003,-13.369 0.096,-7.406 0,0"
             style="fill:#000000;fill-opacity:1;fill-rule:evenodd;stroke:none"
             id="path156" />
        </g>
        <g
           id="g158"
           transform="translate(1403.9561,1277.3301)">
          <path
             d="m 0,0 c -0.089,-7.486 -5.917,-13.229 -13.35,-13.158 -7.319,0.07 -13.478,6.131 -13.526,13.31 -0.049,7.278 6.498,13.584 13.935,13.426 C -5.493,13.42 0.091,7.561 0,0"
             style="fill:#000000;fill-opacity:1;fill-rule:evenodd;stroke:none"
             id="path160" />
        </g>
        <g
           id="g162"
           transform="translate(449.9492,1169.7148)">
          <path
             d="m 0,0 c -0.036,-7.533 -5.76,-13.299 -13.197,-13.295 -7.106,0.004 -13.322,6.234 -13.382,13.41 -0.062,7.307 5.918,13.332 13.28,13.381 C -5.307,13.551 0.039,8.125 0,0"
             style="fill:#000000;fill-opacity:1;fill-rule:evenodd;stroke:none"
             id="path164" />
        </g>
        <g
           id="g166"
           transform="translate(1276.8496,1374.9375)">
          <path
             d="m 0,0 c 7.713,-0.076 13.031,-5.484 13.017,-13.236 -0.015,-7.498 -6.225,-13.549 -13.7,-13.346 -7.159,0.193 -12.927,6.365 -12.868,13.768 C -13.492,-5.359 -7.742,0.078 0,0"
             style="fill:#000000;fill-opacity:1;fill-rule:evenodd;stroke:none"
             id="path168" />
        </g>
        <g
           id="g170"
           transform="translate(1424.2412,1230.9004)">
          <path
             d="m 0,0 c -7.555,-0.018 -13.347,5.625 -13.371,13.029 -0.025,7.338 5.868,13.426 13.073,13.504 C 7.243,26.617 13.472,20.5 13.399,13.08 13.326,5.607 7.601,0.018 0,0"
             style="fill:#000000;fill-opacity:1;fill-rule:evenodd;stroke:none"
             id="path172" />
        </g>
        <g
           id="g174"
           transform="translate(774.3809,194.2812)">
          <path
             d="m 0,0 c -7.854,-0.031 -13.483,5.596 -13.432,13.426 0.049,7.443 5.846,13.129 13.343,13.084 C 7.303,26.465 13.236,20.592 13.277,13.281 13.316,6.076 7.271,0.029 0,0"
             style="fill:#000000;fill-opacity:1;fill-rule:evenodd;stroke:none"
             id="path176" />
        </g>
        <g
           id="g178"
           transform="translate(1455.0234,1195.123)">
          <path
             d="M 0,0 C -7.812,0.012 -13.092,5.303 -13.096,13.125 -13.101,20.609 -7.382,26.408 0.03,26.434 7.387,26.461 13.525,20.547 13.625,13.338 13.729,5.754 7.838,-0.012 0,0"
             style="fill:#000000;fill-opacity:1;fill-rule:evenodd;stroke:none"
             id="path180" />
        </g>
        <g
           id="g182"
           transform="translate(1586.7539,706.0879)">
          <path
             d="m 0,0 c -8.004,-0.041 -13.719,5.496 -13.677,13.25 0.04,7.404 5.884,13.133 13.405,13.141 C 7.315,26.398 13.029,20.809 13.113,13.295 13.196,5.791 7.524,0.039 0,0"
             style="fill:#000000;fill-opacity:1;fill-rule:evenodd;stroke:none"
             id="path184" />
        </g>
        <g
           id="g186"
           transform="translate(1468.79,418.5547)">
          <path
             d="m 0,0 c -0.017,-7.467 -5.796,-13.379 -13.122,-13.42 -7.306,-0.041 -13.819,6.449 -13.715,13.668 0.104,7.178 6.187,12.891 13.723,12.889 C -5.366,13.135 0.017,7.744 0,0"
             style="fill:#000000;fill-opacity:1;fill-rule:evenodd;stroke:none"
             id="path188" />
        </g>
        <g
           id="g190"
           transform="translate(1235.4746,255.6953)">
          <path
             d="m 0,0 c 7.93,0 13.255,-5.187 13.274,-12.934 0.02,-7.691 -5.992,-13.705 -13.531,-13.537 -7.192,0.16 -13.309,6.366 -13.333,13.522 C -13.611,-5.887 -7.434,0 0,0"
             style="fill:#000000;fill-opacity:1;fill-rule:evenodd;stroke:none"
             id="path192" />
        </g>
        <g
           id="g194"
           transform="translate(819.3525,1443.8926)">
          <path
             d="m 0,0 c 7.456,-0.275 13.392,-6.32 13.21,-13.451 -0.177,-6.979 -6.797,-13.42 -13.662,-13.295 -7.455,0.137 -13.469,6.498 -13.249,14.016 C -13.483,-5.262 -7.52,0.279 0,0"
             style="fill:#000000;fill-opacity:1;fill-rule:evenodd;stroke:none"
             id="path196" />
        </g>
        <g
           id="g198"
           transform="translate(424.8975,1130.0273)">
          <path
             d="m 0,0 c 0.103,-7.367 -5.568,-13.258 -13.05,-13.555 -7.124,-0.285 -13.997,6.373 -13.888,13.455 0.108,7.073 6.48,13.368 13.531,13.368 C -6.126,13.268 -0.103,7.307 0,0"
             style="fill:#000000;fill-opacity:1;fill-rule:evenodd;stroke:none"
             id="path200" />
        </g>
        <g
           id="g202"
           transform="translate(1342.3008,318.1738)">
          <path
             d="M 0,0 C 0.018,7.484 5.742,13.539 12.899,13.643 20.062,13.748 26.632,7.148 26.569,-0.088 26.506,-7.402 20.62,-13.063 13.027,-13.107 5.195,-13.156 -0.019,-7.908 0,0"
             style="fill:#000000;fill-opacity:1;fill-rule:evenodd;stroke:none"
             id="path204" />
        </g>
        <g
           id="g206"
           transform="translate(1008.4512,194.6289)">
          <path
             d="m 0,0 c 7.388,-0.094 13.469,-6.074 13.406,-13.186 -0.059,-6.685 -6.805,-13.335 -13.604,-13.41 -7.257,-0.08 -13.496,6.412 -13.313,13.852 C -13.322,-5.066 -7.846,0.098 0,0"
             style="fill:#000000;fill-opacity:1;fill-rule:evenodd;stroke:none"
             id="path208" />
        </g>
        <g
           id="g210"
           transform="translate(1113.916,1430.6113)">
          <path
             d="m 0,0 c -0.025,-7.406 -5.937,-13.352 -13.205,-13.281 -7.307,0.072 -13.278,6.095 -13.297,13.414 -0.018,7.633 5.935,13.461 13.689,13.398 C -5.334,13.473 0.026,7.812 0,0"
             style="fill:#000000;fill-opacity:1;fill-rule:evenodd;stroke:none"
             id="path212" />
        </g>
        <g
           id="g214"
           transform="translate(1330.5088,289.9238)">
          <path
             d="m 0,0 c -0.044,-7.789 -5.422,-12.979 -13.377,-12.906 -7.46,0.068 -13.549,6.105 -13.379,13.269 0.167,7.065 6.595,13.266 13.696,13.213 C -5.747,13.523 0.042,7.504 0,0"
             style="fill:#000000;fill-opacity:1;fill-rule:evenodd;stroke:none"
             id="path216" />
        </g>
        <g
           id="g218"
           transform="translate(1425.1387,395.7754)">
          <path
             d="m 0,0 c 7.468,-0.059 13.128,-5.941 12.947,-13.457 -0.172,-7.18 -6.373,-13.129 -13.611,-13.059 -7.024,0.069 -13.432,6.553 -13.326,13.489 C -13.875,-5.469 -7.937,0.061 0,0"
             style="fill:#000000;fill-opacity:1;fill-rule:evenodd;stroke:none"
             id="path220" />
        </g>
        <g
           id="g222"
           transform="translate(1522.1113,496.3281)">
          <path
             d="m 0,0 c -0.121,-7.479 -6.148,-13.223 -13.567,-12.932 -7.556,0.299 -12.963,6.039 -12.871,13.67 0.09,7.487 5.975,13.321 13.35,13.233 C -5.444,13.881 0.128,7.932 0,0"
             style="fill:#000000;fill-opacity:1;fill-rule:evenodd;stroke:none"
             id="path224" />
        </g>
        <g
           id="g226"
           transform="translate(603.21,1349.4707)">
          <path
             d="m 0,0 c 8.025,0.02 13.244,-5.002 13.286,-12.785 0.042,-7.793 -5.698,-13.613 -13.388,-13.569 -7.13,0.04 -13.414,6.309 -13.359,13.327 C -13.402,-5.797 -7.43,-0.018 0,0"
             style="fill:#000000;fill-opacity:1;fill-rule:evenodd;stroke:none"
             id="path228" />
        </g>
        <g
           id="g230"
           transform="translate(1234.2822,1370.8359)">
          <path
             d="M 0,0 C -7.255,0.066 -12.856,5.74 -12.858,13.021 -12.86,20.637 -6.735,26.779 0.692,26.609 7.969,26.443 13.897,20.365 13.872,13.1 13.846,5.562 7.878,-0.072 0,0"
             style="fill:#000000;fill-opacity:1;fill-rule:evenodd;stroke:none"
             id="path232" />
        </g>
        <g
           id="g234"
           transform="translate(1134.4531,208.1484)">
          <path
             d="M 0,0 C 0.035,7.682 5.561,13.184 13.169,13.115 20.562,13.047 26.465,7.152 26.5,-0.199 26.534,-7.283 20.338,-13.641 13.251,-13.795 5.984,-13.951 -0.035,-7.686 0,0"
             style="fill:#000000;fill-opacity:1;fill-rule:evenodd;stroke:none"
             id="path236" />
        </g>
        <g
           id="g238"
           transform="translate(1191.0879,1389.7383)">
          <path
             d="m 0,0 c -7.294,0.029 -13.37,6.082 -13.338,13.285 0.033,7.076 6.303,13.328 13.447,13.404 C 7.514,26.77 13.349,20.973 13.458,13.43 13.572,5.52 8.01,-0.031 0,0"
             style="fill:#000000;fill-opacity:1;fill-rule:evenodd;stroke:none"
             id="path240" />
        </g>
        <g
           id="g242"
           transform="translate(913.9746,194.5117)">
          <path
             d="m 0,0 c 7.691,-0.119 12.96,-5.592 12.869,-13.367 -0.083,-7.209 -6.277,-13.238 -13.472,-13.115 -7.199,0.123 -13.257,6.279 -13.249,13.461 C -13.842,-5.352 -8.016,0.127 0,0"
             style="fill:#000000;fill-opacity:1;fill-rule:evenodd;stroke:none"
             id="path244" />
        </g>
        <g
           id="g246"
           transform="translate(1367.9199,1308.2305)">
          <path
             d="m 0,0 c -0.063,-7.398 -5.969,-13.414 -13.17,-13.42 -7.001,-0.004 -13.311,6.402 -13.343,13.545 -0.034,7.531 6.088,13.498 13.74,13.393 C -5.154,13.412 0.066,7.887 0,0"
             style="fill:#000000;fill-opacity:1;fill-rule:evenodd;stroke:none"
             id="path248" />
        </g>
        <g
           id="g250"
           transform="translate(543.001,348.293)">
          <path
             d="m 0,0 c 0.041,-7.84 -5.225,-13.143 -13.062,-13.152 -7.57,-0.01 -13.337,5.623 -13.401,13.09 -0.064,7.488 6.19,13.83 13.561,13.751 C -5.832,13.613 -0.041,7.469 0,0"
             style="fill:#000000;fill-opacity:1;fill-rule:evenodd;stroke:none"
             id="path252" />
        </g>
        <g
           id="g254"
           transform="translate(925.8652,1444.8086)">
          <path
             d="m 0,0 c 0.064,-7.262 -5.914,-13.461 -13.05,-13.527 -7.564,-0.073 -13.549,5.922 -13.517,13.539 0.031,7.609 5.5,12.959 13.277,12.986 C -5.615,13.023 -0.068,7.6 0,0"
             style="fill:#000000;fill-opacity:1;fill-rule:evenodd;stroke:none"
             id="path256" />
        </g>
        <g
           id="g258"
           transform="translate(495.9893,1230.8613)">
          <path
             d="M 0,0 C -7.789,-0.035 -13.266,5.236 -13.341,12.84 -13.415,20.424 -7.36,26.631 0.036,26.551 7.281,26.471 13.013,20.512 13.026,13.039 13.042,5.18 7.902,0.035 0,0"
             style="fill:#000000;fill-opacity:1;fill-rule:evenodd;stroke:none"
             id="path260" />
        </g>
        <g
           id="g262"
           transform="translate(1146.0391,1405.1875)">
          <path
             d="m 0,0 c -7.781,0.359 -12.919,6.469 -12.484,14.84 0.351,6.773 6.425,12.219 13.377,11.992 C 8.367,26.588 14.369,20.1 13.961,12.703 13.562,5.443 7.211,-0.336 0,0"
             style="fill:#000000;fill-opacity:1;fill-rule:evenodd;stroke:none"
             id="path264" />
        </g>
        <g
           id="g266"
           transform="translate(1114.9004,195.6562)">
          <path
             d="m 0,0 c -0.013,-7.477 -5.719,-13.34 -13.078,-13.438 -7.462,-0.099 -13.573,6.126 -13.461,13.713 0.109,7.424 5.908,12.981 13.518,12.955 C -5.357,13.203 0.012,7.746 0,0"
             style="fill:#000000;fill-opacity:1;fill-rule:evenodd;stroke:none"
             id="path268" />
        </g>
        <g
           id="g270"
           transform="translate(698.3154,1383.9141)">
          <path
             d="m 0,0 c 0.018,-7.609 -5.583,-13.404 -12.964,-13.41 -7.352,-0.008 -13.476,5.834 -13.645,13.015 -0.171,7.284 6.208,13.817 13.485,13.809 C -5.888,13.408 -0.018,7.406 0,0"
             style="fill:#000000;fill-opacity:1;fill-rule:evenodd;stroke:none"
             id="path272" />
        </g>
        <g
           id="g274"
           transform="translate(1007.4102,1457.8438)">
          <path
             d="m 0,0 c 7.277,-0.072 13.549,-6.229 13.434,-13.188 -0.116,-6.955 -6.545,-13.339 -13.51,-13.414 -7.332,-0.078 -13.555,6.334 -13.359,13.76 C -13.23,-5.115 -7.799,0.076 0,0"
             style="fill:#000000;fill-opacity:1;fill-rule:evenodd;stroke:none"
             id="path276" />
        </g>
        <g
           id="g278"
           transform="translate(1590.8887,672.5449)">
          <path
             d="m 0,0 c -0.044,-7.445 -5.868,-13.285 -13.188,-13.221 -7.291,0.063 -13.306,6.076 -13.33,13.325 -0.022,7.367 6.456,13.724 13.726,13.472 C -5.357,13.318 0.044,7.586 0,0"
             style="fill:#000000;fill-opacity:1;fill-rule:evenodd;stroke:none"
             id="path280" />
        </g>
        <g
           id="g282"
           transform="translate(496.4932,394.9277)">
          <path
             d="M 0,0 C 7.387,-0.018 13.407,-5.912 13.408,-13.131 13.409,-20.096 7.05,-26.516 0.041,-26.623 -7.049,-26.732 -13.31,-20.607 -13.46,-13.416 -13.621,-5.758 -7.826,0.018 0,0"
             style="fill:#000000;fill-opacity:1;fill-rule:evenodd;stroke:none"
             id="path284" />
        </g>
        <g
           id="g286"
           transform="translate(974.1035,179.8672)">
          <path
             d="m 0,0 c -0.017,-7.373 -6.02,-13.533 -13.17,-13.516 -7.224,0.016 -13.445,6.141 -13.533,13.321 -0.088,7.197 5.99,13.277 13.338,13.34 C -5.79,13.209 0.018,7.498 0,0"
             style="fill:#000000;fill-opacity:1;fill-rule:evenodd;stroke:none"
             id="path288" />
        </g>
        <g
           id="g290"
           transform="translate(1205.209,223.3379)">
          <path
             d="m 0,0 c -0.105,-7.613 -5.734,-13.17 -13.266,-13.098 -7.187,0.069 -13.279,6.237 -13.262,13.43 0.016,7.451 6.151,13.264 13.874,13.147 C -4.896,13.361 0.111,8.027 0,0"
             style="fill:#000000;fill-opacity:1;fill-rule:evenodd;stroke:none"
             id="path292" />
        </g>
        <g
           id="g294"
           transform="translate(1508.1016,1117.0625)">
          <path
             d="m 0,0 c -7.849,0.15 -12.891,5.537 -12.664,13.529 0.211,7.432 5.785,12.928 13.098,12.916 C 7.898,26.434 14.169,20.006 13.92,12.621 13.675,5.379 7.582,-0.145 0,0"
             style="fill:#000000;fill-opacity:1;fill-rule:evenodd;stroke:none"
             id="path296" />
        </g>
        <g
           id="g298"
           transform="translate(959.7158,1459.5078)">
          <path
             d="M 0,0 C 7.995,0.025 13.302,-5.09 13.349,-12.867 13.395,-20.57 7.905,-26.26 0.346,-26.346 -7.072,-26.43 -13.12,-20.607 -13.26,-13.248 -13.397,-5.963 -7.453,-0.025 0,0"
             style="fill:#000000;fill-opacity:1;fill-rule:evenodd;stroke:none"
             id="path300" />
        </g>
        <g
           id="g302"
           transform="translate(465.6797,430.7148)">
          <path
             d="m 0,0 c 7.492,-0.078 13.39,-6.021 13.242,-13.346 -0.14,-7.06 -6.571,-13.297 -13.65,-13.244 -7.185,0.057 -12.977,6.213 -12.877,13.688 C -13.178,-4.965 -7.98,0.082 0,0"
             style="fill:#000000;fill-opacity:1;fill-rule:evenodd;stroke:none"
             id="path304" />
        </g>
        <g
           id="g306"
           transform="translate(603.6318,276.2617)">
          <path
             d="M 0,0 C -7.648,0.127 -12.967,5.66 -12.895,13.412 -12.824,20.877 -7.01,26.424 0.623,26.309 7.947,26.201 13.889,20.068 13.729,12.781 13.567,5.402 7.627,-0.127 0,0"
             style="fill:#000000;fill-opacity:1;fill-rule:evenodd;stroke:none"
             id="path308" />
        </g>
        <g
           id="g310"
           transform="translate(1303.6338,1336.7148)">
          <path
             d="M 0,0 C 0.011,7.811 5.175,12.902 13.117,12.93 20.63,12.957 26.524,7.285 26.601,-0.049 26.676,-7.256 20.099,-13.75 12.88,-13.594 5.597,-13.438 -0.011,-7.52 0,0"
             style="fill:#000000;fill-opacity:1;fill-rule:evenodd;stroke:none"
             id="path312" />
        </g>
        <g
           id="g314"
           transform="translate(478.002,1207.916)">
          <path
             d="m 0,0 c -0.027,-7.891 -5.283,-13.076 -13.197,-13.016 -7.657,0.057 -13.26,5.737 -13.143,13.319 0.115,7.41 6.13,13.359 13.444,13.295 C -5.604,13.535 0.026,7.6 0,0"
             style="fill:#000000;fill-opacity:1;fill-rule:evenodd;stroke:none"
             id="path316" />
        </g>
        <g
           id="g318"
           transform="translate(699.0195,241.8164)">
          <path
             d="m 0,0 c -0.011,-7.777 -5.32,-12.961 -13.216,-12.906 -7.702,0.054 -13.169,5.515 -13.192,13.181 -0.022,7.43 6.377,13.719 13.717,13.483 C -5.409,13.521 0.011,7.646 0,0"
             style="fill:#000000;fill-opacity:1;fill-rule:evenodd;stroke:none"
             id="path320" />
        </g>
        <g
           id="g322"
           transform="translate(481.9961,962.3926)">
          <path
             d="m 0,0 c 3.946,8.641 7.619,16.783 11.422,24.867 0.42,0.889 1.473,1.783 2.416,2.072 4.545,1.401 9.152,2.594 14.918,4.186 C 27.033,27.471 25.771,24.729 24.453,22.014 22.208,17.381 19.871,12.793 17.676,8.139 13.854,0.037 10.287,-1.77 0,0"
             style="fill:#000000;fill-opacity:1;fill-rule:evenodd;stroke:none"
             id="path324" />
        </g>
        <g
           id="g326"
           transform="translate(574.8916,1167.1279)">
          <path
             d="m 0,0 c 6.019,-6.243 9.027,-9.363 15.047,-15.606 2.78,2.773 4.318,5.21 4.597,7.366 0.279,2.155 -0.942,4.717 -3.683,7.678 -2.92,3.154 -5.568,4.74 -7.956,4.735 C 5.616,4.167 2.934,2.785 0,0 m -19.318,20.04 c 6.005,-6.228 9.009,-9.344 15.014,-15.572 2.788,2.825 4.313,5.395 4.563,7.769 0.249,2.374 -0.931,4.986 -3.564,7.828 -2.853,3.081 -5.394,4.655 -7.634,4.7 -2.241,0.045 -5.051,-1.514 -8.379,-4.725 m -12.186,-3.006 c 3.639,3.64 5.474,5.434 9.172,8.978 5.027,4.819 9.695,7.326 13.877,7.591 4.183,0.263 8.115,-1.722 11.826,-5.872 C 8.622,21.858 5.16,9.064 5.16,9.064 5.304,8.927 18.408,12.335 24.406,5.603 c 3.292,-3.695 4.778,-7.479 4.521,-11.337 -0.257,-3.859 -2.243,-7.494 -5.964,-11.019 -4.234,-4.012 -6.33,-6.052 -10.48,-10.201 -14.663,14.663 -29.325,29.325 -43.987,43.988"
             style="fill:#000000;fill-opacity:1;fill-rule:nonzero;stroke:none"
             id="path328" />
        </g>
        <g
           id="g330"
           transform="translate(625.25,1198.4727)">
          <path
             d="m 0,0 c -7.759,6.441 -15.587,12.799 -23.493,19.06 -0.078,-0.063 -0.115,-0.096 -0.194,-0.159 4.448,-9.027 8.996,-18.005 13.639,-26.933 3.99,3.266 6,4.873 10.048,8.032 m 21.871,-6.736 c -2.964,-2.198 -4.438,-3.311 -7.372,-5.567 -3.82,3.273 -5.74,4.899 -9.596,8.137 -4.868,-3.781 -7.283,-5.711 -12.067,-9.648 2.286,-4.495 3.439,-6.734 5.766,-11.202 -2.83,-2.352 -4.238,-3.544 -7.036,-5.953 -9.534,19.232 -18.62,38.629 -27.29,58.266 2.743,2.226 4.121,3.329 6.889,5.509 C -11.609,20.017 5.268,6.851 21.871,-6.736"
             style="fill:#000000;fill-opacity:1;fill-rule:nonzero;stroke:none"
             id="path332" />
        </g>
        <g
           id="g334"
           transform="translate(644.1729,1232.4912)">
          <path
             d="m 0,0 c 3.206,2.27 5.136,4.478 5.781,6.681 0.646,2.201 -0.09,4.939 -2.226,8.211 -2.048,3.134 -4.188,4.925 -6.433,5.354 -2.245,0.429 -5.037,-0.462 -8.334,-2.709 -0.202,-0.138 -0.304,-0.206 -0.505,-0.344 C -7.03,10.316 -4.687,6.877 0,0 m 37.797,-17.007 c -3.327,-2.078 -4.984,-3.132 -8.28,-5.277 C 21.113,-16.096 12.585,-10.076 3.94,-4.229 3.651,-4.427 3.507,-4.524 3.218,-4.722 8.7,-12.767 14.183,-20.81 19.663,-28.855 c -3.141,-2.146 -4.703,-3.236 -7.813,-5.444 -11.983,16.927 -23.966,33.855 -35.953,50.779 4.808,3.414 7.228,5.086 12.101,8.366 9.93,6.682 17.833,5.282 23.482,-3.705 2.565,-4.079 3.775,-7.607 3.665,-10.571 -0.111,-2.965 -1.412,-5.976 -3.88,-9.078 8.938,-6.049 17.765,-12.203 26.532,-18.499"
             style="fill:#000000;fill-opacity:1;fill-rule:nonzero;stroke:none"
             id="path336" />
        </g>
        <g
           id="g338"
           transform="translate(715.3252,1235.8789)">
          <path
             d="m 0,0 c -1.918,-2.37 -4.092,-4.22 -6.546,-5.561 -4.907,-2.682 -10.057,-3.385 -15.588,-2.121 -5.531,1.264 -11.459,7.283 -17.819,17.686 -4.605,7.531 -9.985,17.683 -7.975,26.626 1.383,6.152 5.302,11.065 11.017,14.184 2.143,1.17 4.949,2.316 8.411,3.401 1.418,-2.697 2.127,-4.049 3.546,-6.746 -2.404,-0.418 -4.512,-1.118 -6.314,-2.092 -3.533,-1.91 -5.747,-5.035 -6.592,-9.309 -0.846,-4.273 1.191,-10.636 6.033,-19.093 2.883,-5.036 5.394,-8.827 7.525,-11.382 2.129,-2.556 4.578,-4.159 7.338,-4.833 2.76,-0.676 5.495,-0.262 8.247,1.23 1.618,0.878 3.372,2.393 5.285,4.539 C -2.059,3.918 -1.373,2.611 0,0"
             style="fill:#000000;fill-opacity:1;fill-rule:nonzero;stroke:none"
             id="path340" />
        </g>
        <g
           id="g342"
           transform="translate(749.1406,1250.9902)">
          <path
             d="m 0,0 c -9.125,-4.011 -13.651,-6.131 -22.618,-10.59 -9.232,18.573 -18.465,37.147 -27.702,55.717 9.842,4.894 14.81,7.224 24.823,11.635 1.143,-2.592 1.715,-3.889 2.857,-6.481 -6.18,-2.722 -9.255,-4.13 -15.371,-7.039 3.391,-7.127 5.085,-10.689 8.476,-17.817 5.472,2.602 8.223,3.866 13.748,6.314 1.148,-2.59 1.722,-3.886 2.87,-6.476 -5.457,-2.418 -8.172,-3.665 -13.576,-6.236 3.684,-7.745 5.526,-11.616 9.211,-19.361 5.771,2.746 8.674,4.074 14.509,6.639 C -1.664,3.783 -1.109,2.521 0,0"
             style="fill:#000000;fill-opacity:1;fill-rule:nonzero;stroke:none"
             id="path344" />
        </g>
        <g
           id="g346"
           transform="translate(782.0605,1264.1592)">
          <path
             d="m 0,0 c -9.321,-3.371 -13.953,-5.168 -23.14,-8.987 -7.968,19.149 -15.937,38.299 -23.908,57.447 3.829,1.592 5.748,2.371 9.599,3.894 6.779,-17.121 13.554,-34.242 20.334,-51.361 5.868,2.32 8.816,3.434 14.736,5.574 C -1.428,3.94 -0.952,2.626 0,0"
             style="fill:#000000;fill-opacity:1;fill-rule:nonzero;stroke:none"
             id="path348" />
        </g>
        <g
           id="g350"
           transform="translate(810.4482,1305.5918)">
          <path
             d="m 0,0 c -3.206,11.363 -5.981,18.161 -8.354,20.374 -2.374,2.214 -5.196,2.847 -8.423,1.879 -3.796,-1.139 -5.897,-3.548 -6.281,-7.163 -0.382,-3.614 0.648,-9.186 3.057,-16.714 0.417,-1.302 0.626,-1.952 1.043,-3.253 2.687,-8.396 5.183,-14.348 7.455,-17.877 2.272,-3.529 5.359,-4.674 9.315,-3.487 2.429,0.728 4.189,2.421 5.311,5.111 1.122,2.691 0.3,8.996 -2.501,18.921 C 0.374,-1.326 0.249,-0.883 0,0 m -28.579,-8.354 c -4.35,12.783 -5.668,21.57 -3.848,26.351 1.819,4.78 6.334,8.343 13.492,10.493 8.19,2.46 14.282,1.8 18.127,-1.764 C 3.036,23.163 6.384,15.77 9.318,4.601 c 2.63,-10.006 3.886,-17.092 3.808,-21.252 -0.08,-4.161 -1.209,-7.509 -3.379,-10.069 -2.171,-2.559 -5.517,-4.481 -10.06,-5.844 -4.683,-1.405 -8.512,-1.713 -11.541,-0.864 -3.032,0.85 -5.778,2.912 -8.25,6.2 -2.473,3.29 -5.31,9.572 -8.475,18.874"
             style="fill:#000000;fill-opacity:1;fill-rule:nonzero;stroke:none"
             id="path352" />
        </g>
        <g
           id="g354"
           transform="translate(872.127,1288.0273)">
          <path
             d="m 0,0 c -2.833,-0.49 -4.248,-0.745 -7.075,-1.273 -8.465,12.955 -17.187,25.666 -26.221,38.23 -0.088,-0.027 -0.132,-0.042 -0.22,-0.07 3.085,-13.889 6.172,-27.778 9.259,-41.665 -3.208,-0.71 -4.808,-1.077 -8.008,-1.837 -4.814,20.172 -9.622,40.345 -14.436,60.518 3.179,0.755 4.769,1.121 7.956,1.832 9.284,-12.492 18.257,-25.135 26.979,-38.026 l 0.225,0.005 c -2.654,13.994 -5.305,27.988 -7.958,41.982 3.532,0.666 5.298,0.985 8.838,1.597 C -7.104,40.862 -3.555,20.431 0,0"
             style="fill:#000000;fill-opacity:1;fill-rule:nonzero;stroke:none"
             id="path356" />
        </g>
        <g
           id="g358"
           transform="translate(905.3945,1311.4199)">
          <path
             d="M 0,0 C -3.081,9.581 -6.264,19.129 -9.554,28.64 -9.647,28.629 -9.695,28.623 -9.789,28.612 -10.671,18.613 -11.453,8.605 -12.132,-1.41 -7.284,-0.793 -4.857,-0.51 0,0 m 14.405,-17.342 c -3.511,-0.286 -5.268,-0.443 -8.776,-0.787 -1.469,4.802 -2.212,7.199 -3.726,11.992 -5.835,-0.599 -8.748,-0.937 -14.568,-1.693 -0.382,-5.014 -0.564,-7.52 -0.899,-12.531 -3.452,-0.465 -5.174,-0.713 -8.619,-1.235 1.813,21.305 4.089,42.522 6.824,63.728 3.324,0.41 4.987,0.605 8.316,0.969 C 0.556,23.099 7.692,2.975 14.405,-17.342"
             style="fill:#000000;fill-opacity:1;fill-rule:nonzero;stroke:none"
             id="path360" />
        </g>
        <g
           id="g362"
           transform="translate(964.8408,1314.541)">
          <path
             d="m 0,0 c -7.167,0.021 -10.752,-0.023 -17.916,-0.234 -0.072,2.44 -0.107,3.659 -0.18,6.099 7.244,0.213 10.867,0.262 18.115,0.24 C 0.012,3.664 0.008,2.441 0,0"
             style="fill:#000000;fill-opacity:1;fill-rule:nonzero;stroke:none"
             id="path364" />
        </g>
        <g
           id="g366"
           transform="translate(1022.4951,1347.0488)">
          <path
             d="m 0,0 c -3.114,1.787 -5.997,2.791 -8.612,3.016 -2.617,0.224 -4.919,-0.382 -6.884,-1.801 -1.965,-1.42 -3.014,-3.238 -3.169,-5.445 -0.109,-1.559 0.319,-3.261 1.271,-5.109 0.953,-1.848 3.175,-4.85 6.573,-9.056 3.397,-4.204 5.885,-7.848 7.533,-10.896 1.647,-3.048 2.252,-6.421 1.858,-10.113 -0.49,-4.601 -2.426,-8.166 -5.743,-10.742 -3.316,-2.573 -7.368,-3.648 -12.235,-3.284 -2.681,0.201 -5.907,1.157 -9.723,2.839 0.17,2.984 0.256,4.477 0.425,7.46 0.106,-0.038 0.214,-0.092 0.314,-0.164 0.516,-0.37 1.62,-0.999 3.292,-1.839 1.673,-0.84 3.327,-1.318 4.97,-1.437 2.679,-0.195 4.945,0.438 6.823,1.912 1.878,1.473 2.941,3.467 3.169,5.995 0.159,1.751 -0.141,3.412 -0.914,4.983 -0.772,1.572 -2.24,3.745 -4.438,6.502 -2.334,2.95 -3.518,4.417 -5.916,7.343 -2.328,2.836 -4.054,5.388 -5.143,7.668 -1.09,2.281 -1.563,4.947 -1.397,8.005 0.245,4.521 2.012,8.121 5.369,10.753 3.356,2.633 7.619,3.763 12.714,3.34 C -6.309,9.635 -2.777,8.577 0.689,6.754 0.415,4.053 0.275,2.701 0,0"
             style="fill:#000000;fill-opacity:1;fill-rule:nonzero;stroke:none"
             id="path368" />
        </g>
        <g
           id="g370"
           transform="translate(1055.0371,1306.7695)">
          <path
             d="M 0,0 C -0.388,10.054 -0.882,20.104 -1.487,30.147 -1.581,30.162 -1.63,30.17 -1.724,30.185 -5.272,20.791 -8.724,11.361 -12.077,1.896 -7.239,1.191 -4.823,0.812 0,0 m 9.226,-20.571 c -3.47,0.669 -5.207,0.988 -8.685,1.598 -0.122,5.019 -0.192,7.531 -0.36,12.553 -5.792,0.989 -8.695,1.445 -14.506,2.277 -1.72,-4.726 -2.571,-7.093 -4.245,-11.831 -3.45,0.478 -5.173,0.703 -8.628,1.123 7.488,20.036 15.395,39.863 23.752,59.551 3.314,-0.496 4.972,-0.758 8.282,-1.301 1.927,-21.304 3.398,-42.602 4.39,-63.97"
             style="fill:#000000;fill-opacity:1;fill-rule:nonzero;stroke:none"
             id="path372" />
        </g>
        <g
           id="g374"
           transform="translate(1106.0264,1276.3877)">
          <path
             d="m 0,0 c -2.783,0.773 -4.178,1.15 -6.969,1.886 -2.095,15.326 -4.521,30.544 -7.289,45.763 -0.092,0.013 -0.138,0.017 -0.229,0.03 -3.179,-13.868 -6.359,-27.736 -9.539,-41.603 -3.204,0.732 -4.808,1.086 -8.021,1.768 4.322,20.282 8.644,40.565 12.965,60.847 3.192,-0.676 4.788,-1.027 7.973,-1.749 3.023,-15.259 5.705,-30.524 8.058,-45.902 0.082,-0.036 0.124,-0.055 0.206,-0.091 3.617,13.778 7.235,27.555 10.854,41.331 3.489,-0.913 5.23,-1.384 8.708,-2.351 C 11.145,39.952 5.572,19.977 0,0"
             style="fill:#000000;fill-opacity:1;fill-rule:nonzero;stroke:none"
             id="path376" />
        </g>
        <g
           id="g378"
           transform="translate(1180.8506,1249.3867)">
          <path
             d="M 0,0 C -3.133,1.405 -4.703,2.096 -7.854,3.447 -3.69,16.104 0.396,28.784 4.4,41.491 4.314,41.527 4.27,41.546 4.185,41.582 -4.046,30.681 -12.086,19.635 -19.93,8.452 c -2.141,0.857 -3.216,1.28 -5.365,2.113 2.056,13.459 3.891,26.951 5.518,40.468 -0.11,0.04 -0.164,0.06 -0.274,0.1 -5.801,-11.999 -11.514,-24.04 -17.146,-36.119 -3.252,1.171 -4.881,1.742 -8.148,2.858 8.891,18.894 17.97,37.687 27.247,56.394 3.364,-1.198 5.042,-1.811 8.391,-3.06 -1.831,-14.828 -3.842,-29.613 -6.049,-44.39 0.083,-0.033 0.125,-0.048 0.208,-0.081 8.556,12.277 17.268,24.417 26.141,36.466 3.308,-1.376 4.96,-2.077 8.252,-3.505 C 12.756,39.733 6.481,19.838 0,0"
             style="fill:#000000;fill-opacity:1;fill-rule:nonzero;stroke:none"
             id="path380" />
        </g>
        <g
           id="g382"
           transform="translate(1218.0225,1300.7588)">
          <path
             d="M 0,0 C 3.763,-1.788 5.637,-2.7 9.374,-4.558 0.147,-23.134 -9.077,-41.712 -18.31,-60.286 c -3.345,1.663 -5.022,2.477 -8.391,4.078 C -17.8,-37.473 -8.901,-18.735 0,0"
             style="fill:#000000;fill-opacity:1;fill-rule:nonzero;stroke:none"
             id="path384" />
        </g>
        <g
           id="g386"
           transform="translate(1255.291,1234.6611)">
          <path
             d="m 0,0 c -3.778,-6.085 -7.916,-10.053 -12.342,-11.983 -4.426,-1.931 -9.567,-1.116 -15.567,2.331 -5.369,3.083 -8.293,7.001 -8.805,11.923 -0.512,4.922 1.909,12.528 7.356,22.796 0.64,1.208 2.496,4.344 5.58,9.397 3.084,5.053 5.432,8.34 7.038,9.862 1.605,1.523 3.559,2.691 5.874,3.489 2.313,0.8 4.815,0.971 7.487,0.507 2.672,-0.465 5.52,-1.556 8.525,-3.292 4.241,-2.449 7.282,-5.639 9.085,-9.494 1.804,-3.855 1.808,-7.533 0.075,-11.017 -3.918,1.074 -5.877,1.59 -9.789,2.585 2.384,5.553 1.464,9.604 -2.762,12.045 -3.249,1.877 -6.294,1.802 -9.084,-0.199 -2.791,-2.002 -5.916,-6.163 -9.404,-12.457 -0.616,-1.11 -0.924,-1.667 -1.539,-2.777 -2.021,-3.646 -3.814,-7.202 -5.391,-10.664 -1.577,-3.463 -2.684,-6.027 -3.311,-7.69 -0.629,-1.663 -0.84,-3.146 -0.64,-4.455 0.199,-1.307 0.6,-2.337 1.21,-3.095 0.609,-0.759 1.44,-1.442 2.495,-2.049 1.98,-1.142 3.817,-1.502 5.531,-1.076 1.713,0.426 3.377,1.514 4.986,3.265 1.609,1.751 3.854,5.026 6.724,9.834 -3.075,1.839 -4.618,2.746 -7.716,4.531 1.461,2.54 2.192,3.809 3.653,6.349 6.558,-3.779 9.815,-5.728 16.27,-9.744 C 3.323,5.354 2.216,3.567 0,0"
             style="fill:#000000;fill-opacity:1;fill-rule:nonzero;stroke:none"
             id="path388" />
        </g>
        <g
           id="g390"
           transform="translate(1289.4258,1202.4971)">
          <path
             d="m 0,0 c -6.202,-8.33 -13.515,-9.255 -22.149,-3.203 -9.481,6.644 -11.528,14.03 -5.893,22.678 8.649,13.27 17.298,26.542 25.942,39.815 C 1.405,57.001 3.15,55.841 6.623,53.483 -1.599,41.337 -9.821,29.19 -18.045,17.045 c -2.646,-3.909 -4.086,-6.878 -4.329,-8.899 -0.244,-2.022 0.919,-3.908 3.487,-5.704 2.569,-1.796 4.712,-2.161 6.46,-1.07 1.748,1.091 4.043,3.599 6.871,7.541 8.453,11.786 16.91,23.57 25.361,35.358 3.422,-2.46 5.125,-3.707 8.512,-6.236 C 18.878,25.357 9.437,12.68 0,0"
             style="fill:#000000;fill-opacity:1;fill-rule:nonzero;stroke:none"
             id="path392" />
        </g>
        <g
           id="g394"
           transform="translate(1311.6543,1165.6943)">
          <path
             d="M 0,0 C -7.853,6.832 -11.843,10.14 -19.942,16.523 -7.125,32.825 5.693,49.126 18.509,65.43 25.95,59.563 33.248,53.517 40.405,47.308 c -1.854,-2.141 -2.779,-3.209 -4.634,-5.35 -5.323,4.624 -8.012,6.888 -13.44,11.325 -4.987,-6.115 -7.483,-9.175 -12.471,-15.29 4.856,-3.97 7.262,-5.99 12.033,-10.115 -1.851,-2.145 -2.775,-3.216 -4.624,-5.36 -4.711,4.073 -7.088,6.073 -11.883,9.993 -5.42,-6.645 -8.13,-9.969 -13.55,-16.615 C -3.042,11.709 -0.507,9.569 4.515,5.201 2.709,3.122 1.806,2.079 0,0"
             style="fill:#000000;fill-opacity:1;fill-rule:nonzero;stroke:none"
             id="path396" />
        </g>
        <g
           id="g398"
           transform="translate(1339.0088,1140.1738)">
          <path
             d="m 0,0 c -7.473,7.473 -11.279,11.096 -19.021,18.12 13.92,15.368 27.84,30.737 41.759,46.108 3.227,-2.927 4.829,-4.409 8.015,-7.406 C 18.147,43.408 5.543,29.994 -7.062,16.58 -2.208,12.013 0.192,9.684 4.938,4.937 2.964,2.963 1.975,1.975 0,0"
             style="fill:#000000;fill-opacity:1;fill-rule:nonzero;stroke:none"
             id="path400" />
        </g>
      </g>
    </g>
    <text
       xml:space="preserve"
       transform="matrix(1,0,0,-1,778.5327,445.4663)"
       style="font-variant:normal;font-weight:normal;font-stretch:condensed;font-size:82px;font-family:'Tw Cen MT Condensed';-inkscape-font-specification:TwCenMT-Condensed;writing-mode:lr-tb;fill:#000000;fill-opacity:1;fill-rule:nonzero;stroke:none"
       id="text404"><tspan
         x="0 34.194 52.972 82.902 101.68 128.166 169.98599 199.916 229.84599 256.332 271.25601 301.186 331.116 361.04599"
         y="0"
         sodipodi:role="line"
         id="tspan402">DICIEMBRE 2024</tspan></text>
    <g
       id="g406">
      <g
         id="g408"
         clip-path="url(#clipPath412)">
        <g
           id="g414"
           transform="translate(755.2187,336.3252)">
          <path
             d="m 0,0 c -3.358,-9.298 -5.036,-13.949 -8.394,-23.247 4.155,-1.422 7.387,-1.665 9.661,-0.781 2.274,0.884 4.142,3.514 5.622,7.872 1.574,4.638 1.787,8.132 0.666,10.481 C 6.434,-3.326 3.916,-1.454 0,0 M 10.777,29.842 C 7.427,20.564 5.752,15.928 2.402,6.65 6.207,5.395 9.271,5.331 11.562,6.425 c 2.29,1.095 4.135,3.742 5.557,7.926 1.539,4.531 1.87,7.882 1.018,10.059 -0.853,2.177 -3.304,3.967 -7.36,5.432 M 3.988,40.136 C 8.359,38.471 10.551,37.661 14.945,36.09 20.922,33.953 24.868,31.061 26.814,27.273 28.76,23.485 28.801,18.575 26.86,12.535 24.113,3.983 10.826,-0.152 10.826,-0.152 c -0.065,-0.242 9.486,-10.952 6.358,-20.744 -1.717,-5.374 -4.519,-9.054 -8.461,-10.983 -3.944,-1.931 -8.729,-1.95 -14.269,-0.004 -6.304,2.214 -9.445,3.365 -15.707,5.75 8.418,22.088 16.83,44.178 25.241,66.269"
             style="fill:#000000;fill-opacity:1;fill-rule:nonzero;stroke:none"
             id="path416" />
        </g>
        <g
           id="g418"
           transform="translate(813.9687,307.3877)">
          <path
             d="M 0,0 C 0.457,11.438 0.993,22.863 1.613,34.294 1.52,34.318 1.473,34.328 1.379,34.353 -3.498,24.023 -8.439,13.734 -13.458,3.474 -8.086,2.022 -5.395,1.327 0,0 m 9.753,-24.054 c -4.185,0.925 -6.274,1.405 -10.448,2.401 0.13,5.737 0.211,8.605 0.392,14.336 -6.633,1.616 -9.944,2.47 -16.544,4.27 -2.632,-5.098 -3.96,-7.643 -6.642,-12.722 -4.092,1.137 -6.136,1.726 -10.213,2.932 C -21.409,8.139 -9.625,29.355 1.687,50.876 4.829,50.041 6.4,49.634 9.55,48.845 9.066,24.532 9.137,0.257 9.753,-24.054"
             style="fill:#000000;fill-opacity:1;fill-rule:nonzero;stroke:none"
             id="path420" />
        </g>
        <g
           id="g422"
           transform="translate(856.8223,317.3105)">
          <path
             d="m 0,0 c 3.979,-0.632 6.999,-0.234 9.031,1.146 2.032,1.378 3.386,4.276 4.081,8.674 0.666,4.213 0.36,7.341 -0.902,9.388 -1.262,2.047 -3.754,3.378 -7.488,4.038 C 4.493,23.287 4.378,23.307 4.149,23.348 2.489,14.009 1.66,9.339 0,0 m 18.028,-43.121 c -4.549,0.625 -6.821,0.957 -11.362,1.664 -2.52,11.584 -4.822,23.215 -6.905,34.885 -0.362,0.063 -0.541,0.095 -0.903,0.16 -1.94,-10.924 -3.88,-21.848 -5.826,-32.772 -4.366,0.777 -6.547,1.181 -10.902,2.034 4.538,23.199 9.08,46.396 13.619,69.594 C 1.109,31.396 3.795,30.905 9.172,29.986 19.757,28.789 24.775,19.265 23.1,9.453 22.202,4.196 20.911,0.032 18.8,-2.474 16.688,-4.979 13.576,-6.64 9.462,-7.41 c 2.614,-11.959 5.467,-23.868 8.566,-35.711"
             style="fill:#000000;fill-opacity:1;fill-rule:nonzero;stroke:none"
             id="path424" />
        </g>
        <g
           id="g426"
           transform="translate(903.4531,302.9512)">
          <path
             d="m 0,0 c -0.95,-9.841 -1.427,-14.763 -2.378,-24.604 4.306,-0.341 7.45,0.228 9.405,1.65 1.954,1.421 3.1,4.438 3.455,9.026 0.379,4.885 -0.264,8.318 -1.903,10.314 C 6.94,-1.618 4.087,-0.432 0,0 M 3.052,31.585 C 2.104,21.768 1.629,16.859 0.681,7.041 4.614,6.773 7.549,7.473 9.469,9.103 c 1.919,1.629 3.041,4.653 3.383,9.058 0.37,4.771 -0.128,8.101 -1.468,9.997 -1.341,1.897 -4.11,3.019 -8.332,3.427 M -5.91,39.86 C -1.345,39.341 0.94,39.102 5.513,38.675 11.729,38.094 16.192,36.273 18.97,33.088 21.747,29.9 22.979,25.154 22.591,18.822 22.042,9.855 10.361,2.552 10.361,2.552 c -0.004,-0.254 11.712,-8.255 11.1,-18.517 -0.336,-5.631 -2.118,-9.889 -5.415,-12.736 -3.299,-2.849 -7.858,-4.059 -13.613,-3.553 -6.549,0.575 -9.822,0.905 -16.361,1.65 2.669,23.488 5.349,46.975 8.018,70.464"
             style="fill:#000000;fill-opacity:1;fill-rule:nonzero;stroke:none"
             id="path428" />
        </g>
        <g
           id="g430"
           transform="translate(969.6758,268.2852)">
          <path
             d="m 0,0 c -9.847,-0.115 -19.697,-0.009 -29.539,0.325 0.802,23.626 1.61,47.252 2.416,70.878 10.324,-0.351 15.491,-0.41 25.814,-0.294 0.037,-3.227 0.055,-4.845 0.091,-8.073 -6.541,-0.073 -9.812,-0.064 -16.355,0.048 -0.154,-8.994 -0.229,-13.491 -0.383,-22.487 6.292,-0.107 9.439,-0.119 15.73,-0.061 0.03,-3.229 0.041,-4.843 0.071,-8.071 -6.376,-0.058 -9.563,-0.046 -15.94,0.063 -0.167,-9.774 -0.25,-14.661 -0.418,-24.435 C -11.146,7.767 -7.46,7.758 -0.094,7.847 -0.056,4.707 -0.038,3.139 0,0"
             style="fill:#000000;fill-opacity:1;fill-rule:nonzero;stroke:none"
             id="path432" />
        </g>
        <g
           id="g434"
           transform="translate(993.9375,308.8887)">
          <path
             d="M 0,0 C 3.996,0.287 6.83,1.36 8.485,3.166 10.141,4.97 10.799,8.098 10.478,12.54 10.17,16.795 9.162,19.771 7.477,21.479 5.792,23.187 3.08,23.917 -0.685,23.713 -0.915,23.7 -1.032,23.693 -1.263,23.682 -0.758,14.209 -0.505,9.473 0,0 m 27.226,-37.908 c -4.555,-0.422 -6.83,-0.616 -11.391,-0.957 -5.059,10.714 -9.921,21.518 -14.58,32.412 -0.364,-0.02 -0.546,-0.029 -0.91,-0.049 0.592,-11.08 1.182,-22.159 1.771,-33.239 -4.401,-0.235 -6.601,-0.335 -11.006,-0.493 -0.856,23.624 -1.705,47.248 -2.555,70.872 5.42,0.195 8.129,0.325 13.543,0.649 C 12.665,32.518 19.65,24.342 20.243,14.443 20.562,9.12 20.252,4.773 18.772,1.854 17.293,-1.064 14.65,-3.387 10.837,-5.07 16.074,-16.127 21.539,-27.076 27.226,-37.908"
             style="fill:#000000;fill-opacity:1;fill-rule:nonzero;stroke:none"
             id="path436" />
        </g>
        <g
           id="g438"
           transform="translate(1095.2656,283.5078)">
          <path
             d="m 0,0 c -2.938,-2.029 -6.038,-3.368 -9.278,-4.007 -6.481,-1.276 -12.81,-0.167 -17.963,3.447 -7.674,5.382 -10.016,17.405 -11.375,26.198 -1.512,9.776 -3.198,22.425 1.613,31.421 3.126,5.844 7.986,9.424 13.953,10.603 2.238,0.442 5.065,0.633 8.499,0.606 0.724,-3.398 1.085,-5.094 1.809,-8.492 -2.372,0.368 -4.516,0.362 -6.445,-0.027 -3.782,-0.763 -6.654,-3.23 -8.691,-7.437 -2.038,-4.208 -2.131,-11.772 -0.199,-22.71 1.15,-6.513 2.361,-11.551 3.648,-15.112 1.287,-3.562 3.283,-6.228 6.003,-7.972 2.72,-1.744 5.859,-2.271 9.385,-1.565 2.074,0.415 4.517,1.496 7.29,3.264 C -1.05,4.929 -0.701,3.288 0,0"
             style="fill:#000000;fill-opacity:1;fill-rule:nonzero;stroke:none"
             id="path440" />
        </g>
        <g
           id="g442"
           transform="translate(1140.5391,293.625)">
          <path
             d="m 0,0 c -9.509,-2.758 -19.081,-5.3 -28.708,-7.614 -5.533,22.981 -11.059,45.966 -16.588,68.948 3.828,0.921 5.739,1.396 9.555,2.385 5.26,-20.317 10.517,-40.633 15.782,-60.948 7.119,1.844 10.667,2.819 17.74,4.872 C -1.331,4.585 -0.888,3.058 0,0"
             style="fill:#000000;fill-opacity:1;fill-rule:nonzero;stroke:none"
             id="path444" />
        </g>
        <g
           id="g446"
           transform="translate(1186.7148,326.876)">
          <path
             d="m 0,0 c 4.604,-10.064 -1.406,-19.589 -11.021,-23.003 -9.737,-3.457 -21.681,-1.113 -24.63,10.343 -5.47,17.205 -10.946,34.407 -16.411,51.614 3.724,1.184 5.58,1.796 9.287,3.045 5.337,-15.844 10.678,-31.686 16.014,-47.529 1.719,-5.1 3.408,-8.459 5.074,-10.067 1.667,-1.607 4.208,-1.834 7.594,-0.641 3.387,1.192 5.129,2.986 5.227,5.331 0.096,2.346 -0.813,6.113 -2.715,11.304 -5.691,15.522 -11.381,31.044 -17.066,46.569 3.68,1.349 5.516,2.04 9.178,3.454 C -12.978,33.614 -6.489,16.807 0,0"
             style="fill:#000000;fill-opacity:1;fill-rule:nonzero;stroke:none"
             id="path448" />
        </g>
        <g
           id="g450"
           transform="translate(1207.7021,351.9326)">
          <path
             d="m 0,0 c 3.99,-9.045 5.984,-13.567 9.976,-22.613 3.979,1.837 6.488,3.893 7.524,6.103 1.037,2.213 0.573,5.406 -1.365,9.58 C 14.071,-2.487 11.813,0.184 9.378,1.107 6.943,2.031 3.83,1.649 0,0 m -12.808,29.026 c 3.982,-9.023 5.973,-13.535 9.954,-22.558 3.615,1.717 5.875,3.787 6.778,6.161 0.902,2.372 0.413,5.564 -1.447,9.572 -2.015,4.341 -4.094,6.994 -6.214,7.98 -2.121,0.986 -5.132,0.584 -9.071,-1.155 m -11.985,2.778 c 4.289,1.804 6.426,2.727 10.686,4.623 5.791,2.577 10.652,3.214 14.683,1.822 C 4.609,36.857 8.036,33.339 10.803,27.63 14.72,19.547 7.932,7.365 7.932,7.365 8.051,7.146 22.396,6.009 26.894,-3.235 c 2.467,-5.073 2.967,-9.67 1.437,-13.793 -1.531,-4.124 -4.986,-7.45 -10.337,-9.867 -6.088,-2.75 -9.144,-4.083 -15.286,-6.667 -9.169,21.788 -18.336,43.577 -27.501,65.366"
             style="fill:#000000;fill-opacity:1;fill-rule:nonzero;stroke:none"
             id="path452" />
        </g>
      </g>
    </g>
  </g>
</svg>
